# xmcd
#
# Track frame offsets:
#	150
#	6964
#	13009
#	22608
#	34021
#	44960
#	58790
#	71828
#	82873
#	92961
#	104584
#	115601
#	124766
#	136001
#	150649
#	165648
#	177153
#	192572
#	207592
#	219590
#	229823
#	241767
#	257455
#	270068
#	281077
#	295622
#	305176
#	319795
#	337121
#
# Disc length: 4661 seconds
#
# Revision: 4
# Processed by: cddbd v1.5.2PL0 Copyright (c) Steve Scherf et al.
# Submitted via: audiograbber 1.83.01
#
DISCID=9f12331d
DTITLE=Willie Nelson - One Hell Of A Ride [CD 1)
DYEAR=2008
DGENRE=Country
TTITLE0=When I've Sang My Last Hillbilly Song
TTITLE1=No Place For Me
TTITLE2=Man With The Blues
TTITLE3=Nite Life
TTITLE4=Hello Walls
TTITLE5=Funny How Time Slips Away
TTITLE6=Crazy
TTITLE7=Half A Man
TTITLE8=Mr. Record Man
TTITLE9=One In A Row
TTITLE10=The Party's Over
TTITLE11=Texas In My Soul
TTITLE12=Good Times
TTITLE13=Sweet Memories
TTITLE14=Little Things
TTITLE15=Any Old Arms Won't Do
TTITLE16=Everybody's Talkin'
TTITLE17=Pins And Needles (In My Heart)
TTITLE18=Once More With Feeling
TTITLE19=I Gotta Get Drunk
TTITLE20=Laying My Burdens Down
TTITLE21=What Can You Do To Me Now
TTITLE22=Kneel At The Feet Of Jesus
TTITLE23=I'm A Memory
TTITLE24=Family Bible
TTITLE25=Summer Of Roses
TTITLE26=Yesterday's Wine
TTITLE27=Me And Paul
TTITLE28=The Words Don't Fit The Picture
EXTD=
EXTT0=
EXTT1=
EXTT2=
EXTT3=
EXTT4=
EXTT5=
EXTT6=
EXTT7=
EXTT8=
EXTT9=
EXTT10=
EXTT11=
EXTT12=
EXTT13=
EXTT14=
EXTT15=
EXTT16=
EXTT17=
EXTT18=
EXTT19=
EXTT20=
EXTT21=
EXTT22=
EXTT23=
EXTT24=
EXTT25=
EXTT26=
EXTT27=
EXTT28=
PLAYORDER=
